<svg width="101" height="144" viewBox="0 0 101 144" fill="none" xmlns="http://www.w3.org/2000/svg">
<path d="M4.19478 15.6034C0.42878 14.1804 0.428779 8.8752 4.19478 7.45217L44.8863 -7.9254C48.4552 -9.27415 52.5448 -9.27415 56.1137 -7.9254L96.8052 7.45217C100.571 8.87519 100.571 14.1804 96.8052 15.6034L56.1137 30.981C52.5448 32.3298 48.4552 32.3298 44.8863 30.981L4.19478 15.6034Z" fill="#B1A598"/>
<path d="M12.75 33.7259L17.797 122.046C18.1517 128.254 23.2798 133.109 29.5 133.109H71.5C77.7202 133.109 82.8483 128.254 83.203 122.046L88.25 33.7259C88.25 33.7259 86.25 36.1952 50.5 36.1952C14.75 36.1952 12.75 33.7259 12.75 33.7259Z" fill="#B1A598"/>
<path d="M12.75 33.7259L17.797 122.046C18.1517 128.254 23.2798 133.109 29.5 133.109H71.5C77.7202 133.109 82.8483 128.254 83.203 122.046L88.25 33.7259C88.25 33.7259 86.25 36.1952 50.5 36.1952C14.75 36.1952 12.75 33.7259 12.75 33.7259Z" fill="url(#paint0_linear_141_338)"/>
<path d="M14.7171 68.1406L17.797 122.046C18.1517 128.254 23.2798 133.109 29.5 133.109H71.5C77.7202 133.109 82.8483 128.254 83.203 122.046L86.2829 68.1406C86.2829 68.1406 84.5828 72 50.5 72C16.4172 72 14.7171 68.1406 14.7171 68.1406Z" fill="#693A06"/>
<rect width="101" height="15.8048" rx="7.90238" transform="matrix(1 0 0 -1 0 30.6277)" fill="#B1A598"/>
<defs>
<linearGradient id="paint0_linear_141_338" x1="12.75" y1="62.4746" x2="88.25" y2="62.4746" gradientUnits="userSpaceOnUse">
<stop stop-color="white" stop-opacity="0"/>
<stop offset="1" stop-color="white" stop-opacity="0.25"/>
</linearGradient>
</defs>
</svg>
