<svg width="221" height="78" viewBox="0 0 221 78" fill="none" xmlns="http://www.w3.org/2000/svg">
<path d="M27.8073 70.6757L4.96112 16.6757C1.61372 8.76365 7.42173 0 16.0127 0H206.906C213.533 0 218.906 5.37258 218.906 12V66C218.906 72.6274 213.533 78 206.906 78H38.8589C34.0383 78 29.6856 75.1153 27.8073 70.6757Z" fill="url(#paint0_linear)"/>
<path d="M16.0125 0.25H206.906C213.395 0.25 218.656 5.51065 218.656 12V66C218.656 72.4893 213.395 77.75 206.906 77.75H38.8591C34.139 77.75 29.877 74.9253 28.0379 70.5781L5.19118 16.5781C1.91372 8.83106 7.60066 0.25018 16.0125 0.25Z" stroke="#F9C06A" stroke-width="0.5"/>
<defs>
<linearGradient id="paint0_linear" x1="141.906" y1="8.5" x2="181.406" y2="131" gradientUnits="userSpaceOnUse">
<stop stop-color="#FFFDF7"/>
<stop offset="1" stop-color="#F9C06A" stop-opacity="0.44"/>
</linearGradient>
</defs>
</svg>
