<svg width="36" height="36" viewBox="0 0 36 36" fill="none" xmlns="http://www.w3.org/2000/svg">
<path d="M9 3V7.5M15 3V7.5M21 3V7.5M27 13.5V27C27 28.5913 26.3679 30.1174 25.2426 31.2426C24.1174 32.3679 22.5913 33 21 33H9C7.4087 33 5.88258 32.3679 4.75736 31.2426C3.63214 30.1174 3 28.5913 3 27V13.5H28.5C30.0913 13.5 31.6174 14.1321 32.7426 15.2574C33.8679 16.3826 34.5 17.9087 34.5 19.5C34.5 21.0913 33.8679 22.6174 32.7426 23.7426C31.6174 24.8679 30.0913 25.5 28.5 25.5H27" stroke="#F8F8F8" stroke-width="3" stroke-linecap="round" stroke-linejoin="round"/>
</svg>
