<svg width="142" height="129" viewBox="0 0 142 129" fill="none" xmlns="http://www.w3.org/2000/svg">
<path d="M115.725 105.86C116.74 105.86 117.69 106.066 118.553 106.497L118.552 106.498C118.631 106.535 118.709 106.574 118.785 106.613V106.168H124.621V120.3C124.621 122.861 123.879 124.944 122.219 126.331L122.218 126.33C120.669 127.659 118.753 128.3 116.537 128.3C114.422 128.3 112.599 127.758 111.151 126.596C109.716 125.443 108.886 123.94 108.71 122.133L108.603 121.036H112.06C111.437 120.673 110.856 120.208 110.322 119.643L110.317 119.638C108.85 118.064 108.117 116.147 108.117 113.944C108.117 111.726 108.848 109.804 110.322 108.245C111.792 106.672 113.61 105.86 115.725 105.86ZM90.8965 105.86C91.9352 105.86 92.9005 106.078 93.7695 106.535C93.8233 106.563 93.8761 106.594 93.9287 106.623V106.168H99.7646V122.168H93.9287V121.712C93.876 121.741 93.8235 121.772 93.7695 121.801C92.9005 122.258 91.9352 122.476 90.8965 122.476C88.7496 122.476 86.9217 121.625 85.4707 119.981C84.2368 118.584 83.5358 116.946 83.3613 115.1C83.1869 116.946 82.4867 118.584 81.2529 119.981C79.8019 121.624 77.9739 122.476 75.8271 122.476C74.7878 122.476 73.8169 122.258 72.9346 121.806C72.8775 121.776 72.8223 121.744 72.7666 121.714V128.02H66.9307V106.168H72.7666V106.621C72.8222 106.591 72.8776 106.559 72.9346 106.53C73.8169 106.078 74.7878 105.86 75.8271 105.86C77.9739 105.86 79.8019 106.711 81.2529 108.354C82.4859 109.751 83.1863 111.388 83.3613 113.232C83.5364 111.388 84.2377 109.751 85.4707 108.354C86.9217 106.711 88.7496 105.86 90.8965 105.86ZM115.725 106.86C113.895 106.86 112.337 107.55 111.049 108.932C109.761 110.294 109.117 111.966 109.117 113.944L109.125 114.308C109.2 116.111 109.841 117.661 111.049 118.956C112.256 120.233 113.702 120.912 115.385 120.992L115.725 121C116.476 121 117.178 120.872 117.829 120.614L118.105 120.496C118.833 120.141 119.393 119.694 119.785 119.152V120.804L119.771 121.185C119.703 122.048 119.4 122.734 118.861 123.24L118.63 123.443C118.075 123.886 117.405 124.108 116.621 124.108L116.323 124.1C114.868 124.019 113.912 123.331 113.457 122.036H109.705C109.854 123.567 110.545 124.827 111.777 125.816C112.932 126.744 114.399 127.236 116.177 127.294L116.537 127.3C118.553 127.3 120.233 126.722 121.577 125.564C122.855 124.497 123.533 122.888 123.613 120.737L123.621 120.3V107.168H119.785V108.736C119.393 108.176 118.833 107.728 118.105 107.392C117.485 107.081 116.799 106.907 116.05 106.868L115.725 106.86ZM75.8271 106.86C74.9311 106.86 74.1186 107.047 73.3906 107.42C72.6628 107.793 72.1212 108.232 71.7666 108.736V107.168H67.9307V127.02H71.7666V119.6C72.1212 120.104 72.6628 120.543 73.3906 120.916C74.0277 121.243 74.7294 121.426 75.4951 121.467L75.8271 121.476C77.5596 121.476 79.0378 120.844 80.2617 119.581L80.5029 119.32C81.693 117.973 82.3251 116.379 82.3994 114.539L82.4072 114.168C82.4072 112.171 81.7723 110.453 80.5029 109.016C79.3129 107.668 77.8685 106.952 76.1699 106.868L75.8271 106.86ZM118.543 121.395L118.533 121.399L118.524 121.404C117.656 121.805 116.718 122 115.725 122C115.296 122 114.88 121.965 114.477 121.899C114.653 122.306 114.887 122.574 115.16 122.753C115.484 122.965 115.948 123.108 116.621 123.108C117.279 123.108 117.77 122.905 118.165 122.521L118.171 122.517L118.177 122.511C118.469 122.236 118.677 121.851 118.752 121.285C118.683 121.322 118.614 121.36 118.543 121.395ZM24.5781 105.86C26.8735 105.86 28.8623 106.671 30.4883 108.276C32.1176 109.885 32.9424 111.868 32.9424 114.168C32.9424 116.484 32.1195 118.478 30.4883 120.088L30.4834 120.093C28.8565 121.677 26.8691 122.476 24.5781 122.476C22.2869 122.476 20.2988 121.677 18.6719 120.093L18.668 120.088C17.5471 118.982 16.8077 117.694 16.4551 116.245C15.9976 118.036 15.0736 119.525 13.6807 120.674L13.6816 120.675C12.2254 121.892 10.4292 122.476 8.36426 122.476C6.00893 122.476 3.99328 121.684 2.39258 120.083L2.3877 120.078C0.797093 118.466 0 116.475 0 114.168C0 111.863 0.795646 109.88 2.3877 108.285C3.98745 106.664 6.00477 105.86 8.36426 105.86C10.4267 105.86 12.2205 106.442 13.6758 107.656L13.9414 107.884C15.192 109.002 16.0292 110.417 16.457 112.098C16.8107 110.66 17.5501 109.38 18.668 108.276C20.294 106.672 22.2828 105.86 24.5781 105.86ZM39.376 114.644C39.376 115.665 39.5644 116.252 39.7852 116.562C39.9617 116.809 40.2263 116.976 40.7568 116.976C41.3622 116.975 41.7558 116.769 42.0566 116.368L42.0615 116.361L42.0674 116.354C42.3976 115.93 42.6406 115.197 42.6406 114V106.168H48.4766V122.168H42.6406V121.81C41.8196 122.254 40.8672 122.476 39.8047 122.476C37.8932 122.476 36.2957 121.818 35.1445 120.437L35.1377 120.429C34.038 119.082 33.5401 117.333 33.54 115.288V106.168H39.376V114.644ZM59.0098 105.86C60.9295 105.86 62.5368 106.512 63.7061 107.879H63.707C64.8771 109.206 65.4131 110.938 65.4131 112.964V122.168H59.5771V113.608C59.5771 112.705 59.3864 112.158 59.1396 111.836L59.1299 111.824C58.9077 111.525 58.613 111.36 58.1133 111.36C57.4538 111.36 56.9811 111.582 56.6035 112.021C56.257 112.444 56.0049 113.163 56.0049 114.336V122.168H50.1689V106.168H56.0049V106.544C56.8675 106.084 57.8798 105.86 59.0098 105.86ZM107.329 122.168H101.493V106.168H107.329V122.168ZM135.162 105.86C137.082 105.86 138.689 106.512 139.858 107.879H139.859C141.029 109.206 141.565 110.938 141.565 112.964V122.168H135.729V113.608C135.729 112.705 135.539 112.158 135.292 111.836L135.282 111.824C135.06 111.525 134.765 111.36 134.266 111.36C133.606 111.36 133.133 111.582 132.756 112.021C132.409 112.444 132.157 113.163 132.157 114.336V122.168H126.321V106.168H132.157V106.544C133.02 106.084 134.032 105.86 135.162 105.86ZM8.36426 106.86C6.25492 106.86 4.49961 107.57 3.09961 108.988L2.8457 109.254C1.61506 110.605 1 112.243 1 114.168L1.00781 114.549C1.08975 116.437 1.78708 118.046 3.09961 119.376C4.41214 120.689 6.03665 121.386 7.97266 121.468L8.36426 121.476C10.2307 121.476 11.7895 120.953 13.04 119.908C14.3093 118.863 15.1402 117.5 15.5322 115.82H11.5557C10.9397 117.276 9.87592 118.004 8.36426 118.004L8.17383 118C7.23307 117.96 6.45631 117.615 5.84375 116.968C5.23144 116.303 4.90652 115.441 4.86816 114.383L4.86426 114.168C4.86426 113.011 5.19042 112.086 5.84375 111.396C6.49706 110.686 7.33769 110.332 8.36426 110.332L8.64258 110.341C10.0072 110.426 10.9782 111.151 11.5557 112.516H15.5322C15.1647 110.941 14.411 109.645 13.2725 108.628L13.04 108.428C11.8675 107.448 10.424 106.927 8.70996 106.866L8.36426 106.86ZM24.5781 106.86C22.5435 106.86 20.8075 107.57 19.3701 108.988L19.1094 109.258C17.846 110.624 17.2139 112.26 17.2139 114.168C17.2139 116.221 17.9328 117.957 19.3701 119.376C20.7176 120.688 22.3276 121.386 24.2002 121.468L24.5781 121.476C26.4856 121.476 28.1302 120.86 29.5127 119.63L29.7861 119.376C31.1337 118.046 31.8495 116.437 31.9336 114.549L31.9424 114.168C31.9424 112.26 31.3102 110.624 30.0469 109.258L29.7861 108.988C28.4386 107.658 26.8286 106.951 24.9561 106.868L24.5781 106.86ZM34.54 115.288L34.5459 115.637C34.5995 117.359 35.0546 118.746 35.9121 119.796C36.7871 120.846 37.9822 121.404 39.4971 121.47L39.8047 121.476C41.5032 121.476 42.782 120.841 43.6406 119.572V121.168H47.4766V107.168H43.6406V114L43.6279 114.475C43.5708 115.549 43.3138 116.38 42.8564 116.968C42.3525 117.64 41.6526 117.975 40.7568 117.976L40.4678 117.963C39.0735 117.833 38.376 116.726 38.376 114.644V107.168H34.54V115.288ZM90.8965 106.86C89.0487 106.86 87.49 107.579 86.2207 109.016L85.9893 109.289C84.8738 110.669 84.3164 112.296 84.3164 114.168L84.3232 114.539C84.3976 116.379 85.0307 117.973 86.2207 119.32C87.4105 120.667 88.8545 121.383 90.5527 121.468L90.8965 121.476C91.6805 121.476 92.3931 121.333 93.0342 121.047L93.3047 120.916C94.0139 120.543 94.5554 120.104 94.9287 119.6V121.168H98.7646V107.168H94.9287V108.736C94.6021 108.295 94.1463 107.904 93.5625 107.563L93.3047 107.42C92.6839 107.093 91.9912 106.91 91.2275 106.869L90.8965 106.86ZM59.0098 106.86C57.1991 106.86 55.8635 107.494 55.0049 108.764V107.168H51.1689V121.168H55.0049V114.336C55.0049 113.029 55.2857 112.04 55.8457 111.368C56.4244 110.696 57.18 110.36 58.1133 110.36L58.3994 110.373C59.0464 110.436 59.558 110.721 59.9336 111.228C60.3629 111.788 60.5771 112.582 60.5771 113.608V121.168H64.4131V112.964C64.4131 111.232 63.9868 109.827 63.1338 108.751L62.957 108.54C62.0646 107.49 60.8525 106.932 59.3203 106.866L59.0098 106.86ZM102.493 121.168H106.329V107.168H102.493V121.168ZM135.162 106.86C133.351 106.86 132.016 107.494 131.157 108.764V107.168H127.321V121.168H131.157V114.336C131.157 113.029 131.438 112.04 131.998 111.368C132.577 110.696 133.332 110.36 134.266 110.36L134.552 110.373C135.199 110.436 135.71 110.721 136.086 111.228C136.515 111.788 136.729 112.582 136.729 113.608V121.168H140.565V112.964C140.565 111.232 140.139 109.827 139.286 108.751L139.109 108.54C138.217 107.49 137.005 106.932 135.473 106.866L135.162 106.86ZM75.1836 110.364C76.1561 110.406 76.9401 110.759 77.5352 111.424C78.1885 112.133 78.5146 113.048 78.5146 114.168C78.5146 115.288 78.1885 116.203 77.5352 116.912C76.9006 117.621 76.0512 117.976 74.9873 117.976L74.79 117.972C73.8816 117.933 73.1302 117.623 72.5361 117.041L72.4111 116.912C71.7765 116.203 71.459 115.288 71.459 114.168C71.459 113.048 71.7765 112.133 72.4111 111.424C73.0645 110.715 73.9234 110.36 74.9873 110.36L75.1836 110.364ZM91.9053 110.364C92.8775 110.406 93.6609 110.759 94.2559 111.424C94.9092 112.133 95.2363 113.048 95.2363 114.168L95.2324 114.376C95.1941 115.402 94.8683 116.247 94.2559 116.912C93.6212 117.621 92.7719 117.976 91.708 117.976C90.7106 117.976 89.8934 117.664 89.2568 117.041L89.1318 116.912C88.537 116.247 88.2208 115.402 88.1836 114.376L88.1807 114.168C88.1807 113.048 88.4972 112.133 89.1318 111.424C89.7851 110.715 90.6441 110.36 91.708 110.36L91.9053 110.364ZM24.7617 110.448C25.6694 110.49 26.4295 110.843 27.042 111.508C27.714 112.198 28.0498 113.085 28.0498 114.168C28.0498 115.251 27.714 116.147 27.042 116.856C26.3887 117.547 25.5673 117.892 24.5781 117.892L24.3906 117.888C23.5271 117.85 22.7919 117.548 22.1855 116.981L22.0576 116.856C21.4452 116.192 21.1204 115.362 21.082 114.369L21.0781 114.168C21.0781 113.085 21.4044 112.198 22.0576 111.508C22.7296 110.798 23.5701 110.444 24.5781 110.444L24.7617 110.448ZM116.721 110.364C117.631 110.404 118.409 110.738 119.057 111.368C119.747 112.04 120.093 112.899 120.093 113.944L120.089 114.138C120.048 115.096 119.704 115.89 119.057 116.52C118.366 117.192 117.526 117.528 116.537 117.528L116.354 117.524C115.443 117.485 114.664 117.15 114.017 116.52C113.369 115.89 113.026 115.096 112.985 114.138L112.981 113.944C112.981 112.964 113.285 112.148 113.892 111.496L114.017 111.368C114.707 110.696 115.548 110.36 116.537 110.36L116.721 110.364ZM8.36426 111.332C7.59678 111.332 7.02977 111.584 6.5791 112.073L6.57031 112.083C6.12919 112.549 5.86426 113.208 5.86426 114.168C5.86426 115.126 6.12807 115.799 6.57715 116.288C7.02436 116.757 7.59195 117.004 8.36426 117.004C8.95422 117.004 9.39305 116.864 9.73145 116.633C10.0729 116.399 10.3845 116.022 10.6348 115.431L10.8936 114.82H16.2393C16.2244 114.606 16.2139 114.388 16.2139 114.168C16.2139 113.948 16.2241 113.73 16.2393 113.516H10.8936L10.6348 112.905C10.3845 112.314 10.0729 111.937 9.73145 111.703C9.39305 111.472 8.95422 111.332 8.36426 111.332ZM74.9873 111.36C74.1738 111.36 73.594 111.618 73.1514 112.096C72.7119 112.589 72.459 113.251 72.459 114.168C72.459 115.083 72.7114 115.744 73.1494 116.237C73.5923 116.717 74.1723 116.976 74.9873 116.976C75.804 116.976 76.3687 116.716 76.79 116.245L76.7949 116.24L76.9609 116.041C77.3162 115.571 77.5146 114.966 77.5146 114.168C77.5146 113.37 77.3162 112.765 76.9609 112.295L76.7949 112.096L76.79 112.091C76.3687 111.62 75.804 111.36 74.9873 111.36ZM91.708 111.36C90.8947 111.36 90.3156 111.618 89.873 112.096C89.4335 112.59 89.1807 113.251 89.1807 114.168C89.1807 115.083 89.4329 115.744 89.8711 116.237C90.3139 116.717 90.8933 116.976 91.708 116.976C92.5248 116.976 93.0893 116.716 93.5107 116.245L93.5156 116.24L93.5205 116.234C93.9766 115.739 94.2363 115.08 94.2363 114.168C94.2363 113.256 93.9766 112.597 93.5205 112.102L93.5156 112.096L93.5107 112.091C93.0893 111.62 92.5248 111.36 91.708 111.36ZM24.5781 111.444C23.928 111.444 23.407 111.634 22.9678 112.019L22.7842 112.195C22.3313 112.674 22.0781 113.303 22.0781 114.168C22.0781 115.026 22.3281 115.666 22.7832 116.166C23.256 116.648 23.8303 116.892 24.5781 116.892C25.3051 116.892 25.8604 116.65 26.3164 116.168C26.7926 115.665 27.0498 115.025 27.0498 114.168C27.0498 113.311 26.7925 112.685 26.3252 112.205L26.3154 112.195L26.3066 112.186C25.8482 111.688 25.2961 111.444 24.5781 111.444ZM116.537 111.36C115.801 111.36 115.213 111.6 114.715 112.085C114.235 112.552 113.981 113.144 113.981 113.944C113.982 114.745 114.235 115.337 114.715 115.804C115.213 116.288 115.801 116.528 116.537 116.528C117.273 116.528 117.861 116.288 118.359 115.804C118.839 115.337 119.093 114.745 119.093 113.944C119.093 113.144 118.839 112.552 118.359 112.085C117.861 111.6 117.274 111.36 116.537 111.36ZM104.397 99C105.339 99 106.17 99.3387 106.826 100.007L106.95 100.132C107.55 100.766 107.861 101.55 107.861 102.436C107.861 103.379 107.509 104.211 106.841 104.879C106.177 105.543 105.34 105.872 104.397 105.872C103.477 105.872 102.661 105.532 101.996 104.893L101.982 104.879C101.314 104.211 100.962 103.379 100.962 102.436C100.962 101.491 101.315 100.662 101.996 100.007V100.008C102.656 99.354 103.471 99 104.397 99ZM104.397 100C103.744 100 103.175 100.242 102.689 100.728C102.204 101.194 101.962 101.764 101.962 102.436L101.973 102.684C102.026 103.251 102.265 103.747 102.689 104.172C103.114 104.58 103.603 104.81 104.156 104.861L104.397 104.872C105.002 104.872 105.52 104.693 105.953 104.336L106.134 104.172C106.619 103.687 106.861 103.107 106.861 102.436C106.861 101.764 106.619 101.194 106.134 100.728C105.667 100.242 105.088 100 104.397 100ZM115.725 80.8604C116.74 80.8604 117.69 81.0659 118.553 81.4971L118.552 81.498C118.631 81.535 118.709 81.5736 118.785 81.6133V81.168H124.621V95.2998C124.621 97.861 123.879 99.9437 122.219 101.331L122.218 101.33C120.669 102.659 118.753 103.3 116.537 103.3C114.422 103.3 112.599 102.758 111.151 101.596C109.716 100.443 108.886 98.9396 108.71 97.1328L108.603 96.0361H112.06C111.437 95.6725 110.856 95.2076 110.322 94.6426L110.317 94.6377C108.85 93.0638 108.117 91.1466 108.117 88.9443C108.117 86.7258 108.848 84.8044 110.322 83.2451C111.792 81.6717 113.61 80.8605 115.725 80.8604ZM90.8965 80.8604C91.9352 80.8604 92.9005 81.0778 93.7695 81.5352C93.8233 81.5635 93.8761 81.5938 93.9287 81.623V81.168H99.7646V97.168H93.9287V96.7119C93.876 96.7412 93.8235 96.7724 93.7695 96.8008C92.9005 97.2581 91.9352 97.4756 90.8965 97.4756C88.7496 97.4756 86.9217 96.6245 85.4707 94.9814C84.2368 93.5841 83.5358 91.9457 83.3613 90.0996C83.1869 91.9456 82.4867 93.5842 81.2529 94.9814C79.8019 96.6245 77.9739 97.4755 75.8271 97.4756C74.7878 97.4756 73.8169 97.2581 72.9346 96.8057C72.8775 96.7764 72.8223 96.7442 72.7666 96.7139V103.02H66.9307V81.168H72.7666V81.6211C72.8222 81.5908 72.8776 81.5595 72.9346 81.5303C73.8169 81.0778 74.7878 80.8604 75.8271 80.8604C77.9739 80.8604 79.8019 81.7115 81.2529 83.3545C82.4859 84.7508 83.1863 86.388 83.3613 88.2324C83.5364 86.3879 84.2377 84.7508 85.4707 83.3545C86.9217 81.7114 88.7496 80.8604 90.8965 80.8604ZM115.725 81.8604C113.895 81.8605 112.337 82.5505 111.049 83.9316C109.761 85.2943 109.117 86.9657 109.117 88.9443L109.125 89.3076C109.2 91.1114 109.841 92.661 111.049 93.9561C112.256 95.2334 113.702 95.9122 115.385 95.9922L115.725 96C116.476 96 117.178 95.8715 117.829 95.6143L118.105 95.4961C118.833 95.1415 119.393 94.6935 119.785 94.1523V95.8037L119.771 96.1846C119.703 97.0484 119.4 97.7338 118.861 98.2402L118.63 98.4434C118.075 98.8864 117.405 99.1084 116.621 99.1084L116.323 99.0996C114.868 99.0187 113.912 98.331 113.457 97.0361H109.705C109.854 98.5667 110.545 99.8271 111.777 100.816C112.932 101.744 114.399 102.236 116.177 102.294L116.537 102.3C118.553 102.3 120.233 101.722 121.577 100.564C122.855 99.497 123.533 97.8876 123.613 95.7373L123.621 95.2998V82.168H119.785V83.7363C119.393 83.1764 118.833 82.7276 118.105 82.3916C117.485 82.0812 116.799 81.9069 116.05 81.8682L115.725 81.8604ZM75.8271 81.8604C74.9311 81.8604 74.1186 82.0466 73.3906 82.4199C72.6628 82.7932 72.1212 83.2324 71.7666 83.7363V82.168H67.9307V102.02H71.7666V94.5996C72.1212 95.1035 72.6628 95.5427 73.3906 95.916C74.0277 96.2427 74.7294 96.426 75.4951 96.4668L75.8271 96.4756C77.5596 96.4756 79.0378 95.8443 80.2617 94.5811L80.5029 94.3203C81.693 92.9728 82.3251 91.3788 82.3994 89.5391L82.4072 89.168C82.4072 87.1706 81.7723 85.453 80.5029 84.0156C79.3129 82.6682 77.8685 81.9523 76.1699 81.8682L75.8271 81.8604ZM118.543 96.3945L118.533 96.3994L118.524 96.4043C117.656 96.8052 116.718 97 115.725 97C115.296 97 114.88 96.9649 114.477 96.8994C114.653 97.3062 114.887 97.5739 115.16 97.7529C115.484 97.9648 115.948 98.1084 116.621 98.1084C117.279 98.1084 117.77 97.9046 118.165 97.5215L118.171 97.5166L118.177 97.5107C118.469 97.236 118.677 96.8509 118.752 96.2852C118.683 96.3217 118.614 96.3599 118.543 96.3945ZM24.5781 80.8604C26.8735 80.8604 28.8623 81.6715 30.4883 83.2764C32.1176 84.8845 32.9424 86.8681 32.9424 89.168C32.9424 91.4837 32.1195 93.4778 30.4883 95.0879L30.4834 95.0928C28.8565 96.6772 26.8691 97.4756 24.5781 97.4756C22.2869 97.4756 20.2988 96.6775 18.6719 95.0928L18.668 95.0879C17.5471 93.9816 16.8077 92.6938 16.4551 91.2451C15.9976 93.0363 15.0736 94.5246 13.6807 95.6738L13.6816 95.6748C12.2254 96.892 10.4292 97.4755 8.36426 97.4756C6.00893 97.4756 3.99328 96.6837 2.39258 95.083L2.3877 95.0781C0.797093 93.4662 0 91.4752 0 89.168C0 86.8627 0.795646 84.8795 2.3877 83.2852C3.98745 81.6641 6.00477 80.8604 8.36426 80.8604C10.4267 80.8604 12.2205 81.4421 13.6758 82.6562L13.9414 82.8838C15.192 84.0018 16.0292 85.4172 16.457 87.0977C16.8107 85.6598 17.5501 84.3798 18.668 83.2764C20.294 81.6715 22.2828 80.8604 24.5781 80.8604ZM39.376 89.6436C39.376 90.6653 39.5644 91.2523 39.7852 91.5615C39.9617 91.8087 40.2263 91.9756 40.7568 91.9756C41.3622 91.9755 41.7558 91.7693 42.0566 91.3682L42.0615 91.3613L42.0674 91.3545C42.3976 90.9299 42.6406 90.1968 42.6406 89V81.168H48.4766V97.168H42.6406V96.8096C41.8196 97.2541 40.8672 97.4755 39.8047 97.4756C37.8932 97.4756 36.2957 96.8176 35.1445 95.4365L35.1377 95.4287C34.038 94.0821 33.5401 92.3331 33.54 90.2881V81.168H39.376V89.6436ZM59.0098 80.8604C60.9295 80.8605 62.5368 81.5119 63.7061 82.8789H63.707C64.8771 84.2065 65.4131 85.9376 65.4131 87.9639V97.168H59.5771V88.6084C59.5771 87.7052 59.3864 87.1577 59.1396 86.8359L59.1299 86.8242C58.9077 86.5247 58.613 86.3604 58.1133 86.3604C57.4538 86.3604 56.9811 86.5821 56.6035 87.0205C56.257 87.4443 56.0049 88.1632 56.0049 89.3359V97.168H50.1689V81.168H56.0049V81.5439C56.8675 81.0835 57.8798 80.8604 59.0098 80.8604ZM107.329 97.168H101.493V81.168H107.329V97.168ZM135.162 80.8604C137.082 80.8605 138.689 81.5119 139.858 82.8789H139.859C141.029 84.2065 141.565 85.9376 141.565 87.9639V97.168H135.729V88.6084C135.729 87.7052 135.539 87.1577 135.292 86.8359L135.282 86.8242C135.06 86.5247 134.765 86.3604 134.266 86.3604C133.606 86.3604 133.133 86.5821 132.756 87.0205C132.409 87.4443 132.157 88.1632 132.157 89.3359V97.168H126.321V81.168H132.157V81.5439C133.02 81.0835 134.032 80.8604 135.162 80.8604ZM8.36426 81.8604C6.25492 81.8604 4.49961 82.5696 3.09961 83.9883L2.8457 84.2539C1.61506 85.6047 1 87.2428 1 89.168L1.00781 89.5488C1.08975 91.4368 1.78708 93.0459 3.09961 94.376C4.41214 95.6885 6.03665 96.3858 7.97266 96.4678L8.36426 96.4756C10.2307 96.4755 11.7895 95.9535 13.04 94.9082C14.3093 93.8629 15.1402 92.5002 15.5322 90.8203H11.5557C10.9397 92.2759 9.87592 93.0038 8.36426 93.0039L8.17383 93C7.23307 92.9596 6.45631 92.6153 5.84375 91.9678C5.23144 91.3029 4.90652 90.4413 4.86816 89.3828L4.86426 89.168C4.86426 88.0106 5.19042 87.0862 5.84375 86.3955C6.49706 85.6863 7.33769 85.332 8.36426 85.332L8.64258 85.3408C10.0072 85.4263 10.9782 86.151 11.5557 87.5156H15.5322C15.1647 85.9407 14.411 84.6451 13.2725 83.6279L13.04 83.4277C11.8675 82.4477 10.424 81.9274 8.70996 81.8662L8.36426 81.8604ZM24.5781 81.8604C22.5435 81.8604 20.8075 82.5696 19.3701 83.9883L19.1094 84.2578C17.846 85.6239 17.2139 87.2604 17.2139 89.168C17.2139 91.2213 17.9328 92.9573 19.3701 94.376C20.7176 95.6885 22.3276 96.3858 24.2002 96.4678L24.5781 96.4756C26.4856 96.4756 28.1302 95.8603 29.5127 94.6299L29.7861 94.376C31.1337 93.0459 31.8495 91.4368 31.9336 89.5488L31.9424 89.168C31.9424 87.2605 31.3102 85.6239 30.0469 84.2578L29.7861 83.9883C28.4386 82.6583 26.8286 81.9513 24.9561 81.8682L24.5781 81.8604ZM34.54 90.2881L34.5459 90.6367C34.5995 92.3594 35.0546 93.7459 35.9121 94.7959C36.7871 95.8459 37.9822 96.4041 39.4971 96.4697L39.8047 96.4756C41.5032 96.4755 42.782 95.8415 43.6406 94.5723V96.168H47.4766V82.168H43.6406V89L43.6279 89.4746C43.5708 90.5487 43.3138 91.3797 42.8564 91.9678C42.3525 92.6397 41.6526 92.9755 40.7568 92.9756L40.4678 92.9629C39.0735 92.8326 38.376 91.7259 38.376 89.6436V82.168H34.54V90.2881ZM90.8965 81.8604C89.0487 81.8604 87.49 82.5786 86.2207 84.0156L85.9893 84.2891C84.8738 85.6693 84.3164 87.2957 84.3164 89.168L84.3232 89.5391C84.3976 91.3788 85.0307 92.9728 86.2207 94.3203C87.4105 95.6674 88.8545 96.3835 90.5527 96.4678L90.8965 96.4756C91.6805 96.4756 92.3931 96.3328 93.0342 96.0469L93.3047 95.916C94.0139 95.5427 94.5554 95.1035 94.9287 94.5996V96.168H98.7646V82.168H94.9287V83.7363C94.6021 83.2954 94.1463 82.9044 93.5625 82.5635L93.3047 82.4199C92.6839 82.0932 91.9912 81.9099 91.2275 81.8691L90.8965 81.8604ZM59.0098 81.8604C57.1991 81.8604 55.8635 82.4943 55.0049 83.7637V82.168H51.1689V96.168H55.0049V89.3359C55.0049 88.0293 55.2857 87.0402 55.8457 86.3682C56.4244 85.6962 57.18 85.3604 58.1133 85.3604L58.3994 85.373C59.0464 85.4364 59.558 85.7214 59.9336 86.2275C60.3629 86.7875 60.5771 87.5817 60.5771 88.6084V96.168H64.4131V87.9639C64.4131 86.2315 63.9868 84.8272 63.1338 83.751L62.957 83.54C62.0646 82.4902 60.8525 81.9319 59.3203 81.8662L59.0098 81.8604ZM102.493 96.168H106.329V82.168H102.493V96.168ZM135.162 81.8604C133.351 81.8604 132.016 82.4943 131.157 83.7637V82.168H127.321V96.168H131.157V89.3359C131.157 88.0293 131.438 87.0402 131.998 86.3682C132.577 85.6962 133.332 85.3604 134.266 85.3604L134.552 85.373C135.199 85.4364 135.71 85.7214 136.086 86.2275C136.515 86.7875 136.729 87.5817 136.729 88.6084V96.168H140.565V87.9639C140.565 86.2315 140.139 84.8272 139.286 83.751L139.109 83.54C138.217 82.4902 137.005 81.9319 135.473 81.8662L135.162 81.8604ZM75.1836 85.3643C76.1561 85.4057 76.9401 85.7587 77.5352 86.4238C78.1885 87.1332 78.5146 88.048 78.5146 89.168C78.5146 90.288 78.1885 91.2028 77.5352 91.9121C76.9006 92.6214 76.0512 92.9755 74.9873 92.9756L74.79 92.9717C73.8816 92.9329 73.1302 92.6228 72.5361 92.041L72.4111 91.9121C71.7765 91.2028 71.459 90.288 71.459 89.168C71.459 88.048 71.7765 87.1332 72.4111 86.4238C73.0645 85.7146 73.9234 85.3604 74.9873 85.3604L75.1836 85.3643ZM91.9053 85.3643C92.8775 85.4058 93.6609 85.759 94.2559 86.4238C94.9092 87.1332 95.2363 88.048 95.2363 89.168L95.2324 89.376C95.1941 90.4017 94.8683 91.2472 94.2559 91.9121C93.6212 92.6213 92.7719 92.9756 91.708 92.9756C90.7106 92.9755 89.8934 92.6644 89.2568 92.041L89.1318 91.9121C88.537 91.2472 88.2208 90.4017 88.1836 89.376L88.1807 89.168C88.1807 88.048 88.4972 87.1331 89.1318 86.4238C89.7851 85.7146 90.6441 85.3604 91.708 85.3604L91.9053 85.3643ZM24.7617 85.4482C25.6694 85.4898 26.4295 85.8429 27.042 86.5078C27.714 87.1985 28.0498 88.0853 28.0498 89.168C28.0498 90.2506 27.714 91.1471 27.042 91.8564C26.3887 92.5469 25.5673 92.8916 24.5781 92.8916L24.3906 92.8877C23.5271 92.8498 22.7919 92.5481 22.1855 91.9814L22.0576 91.8564C21.4452 91.1915 21.1204 90.3621 21.082 89.3691L21.0781 89.168C21.0781 88.0854 21.4044 87.1985 22.0576 86.5078C22.7296 85.7985 23.5701 85.4443 24.5781 85.4443L24.7617 85.4482ZM116.721 85.3643C117.631 85.4036 118.409 85.7382 119.057 86.3682C119.747 87.0402 120.093 87.899 120.093 88.9443L120.089 89.1377C120.048 90.0958 119.704 90.8895 119.057 91.5195C118.366 92.1915 117.526 92.5283 116.537 92.5283L116.354 92.5244C115.443 92.4851 114.664 92.1496 114.017 91.5195C113.369 90.8896 113.026 90.0956 112.985 89.1377L112.981 88.9443C112.981 87.9643 113.285 87.148 113.892 86.4961L114.017 86.3682C114.707 85.6962 115.548 85.3604 116.537 85.3604L116.721 85.3643ZM8.36426 86.332C7.59678 86.332 7.02977 86.5839 6.5791 87.0732L6.57031 87.083C6.12919 87.5493 5.86426 88.2076 5.86426 89.168C5.86426 90.1258 6.12807 90.7992 6.57715 91.2881C7.02436 91.7573 7.59195 92.0039 8.36426 92.0039C8.95422 92.0038 9.39305 91.8643 9.73145 91.6328C10.0729 91.3992 10.3845 91.0221 10.6348 90.4307L10.8936 89.8203H16.2393C16.2244 89.6058 16.2139 89.3884 16.2139 89.168C16.2139 88.9475 16.2241 88.7302 16.2393 88.5156H10.8936L10.6348 87.9053C10.3845 87.3138 10.0729 86.9368 9.73145 86.7031C9.39305 86.4716 8.95422 86.3321 8.36426 86.332ZM74.9873 86.3604C74.1738 86.3604 73.594 86.618 73.1514 87.0957C72.7119 87.5895 72.459 88.2512 72.459 89.168C72.459 90.0832 72.7114 90.7438 73.1494 91.2373C73.5923 91.7167 74.1723 91.9756 74.9873 91.9756C75.804 91.9755 76.3687 91.716 76.79 91.2451L76.7949 91.2402L76.9609 91.041C77.3162 90.5706 77.5146 89.9663 77.5146 89.168C77.5146 88.3697 77.3162 87.7653 76.9609 87.2949L76.7949 87.0957L76.79 87.0908C76.3687 86.6199 75.804 86.3604 74.9873 86.3604ZM91.708 86.3604C90.8947 86.3604 90.3156 86.6181 89.873 87.0957C89.4335 87.5895 89.1807 88.251 89.1807 89.168C89.1807 90.0833 89.4329 90.7438 89.8711 91.2373C90.3139 91.7165 90.8933 91.9755 91.708 91.9756C92.5248 91.9756 93.0893 91.716 93.5107 91.2451L93.5156 91.2402L93.5205 91.2344C93.9766 90.7392 94.2363 90.0802 94.2363 89.168C94.2363 88.2557 93.9766 87.5967 93.5205 87.1016L93.5156 87.0957L93.5107 87.0908C93.0893 86.6199 92.5248 86.3604 91.708 86.3604ZM24.5781 86.4443C23.928 86.4443 23.407 86.6342 22.9678 87.0186L22.7842 87.1953C22.3313 87.6742 22.0781 88.3028 22.0781 89.168C22.0781 90.026 22.3281 90.6661 22.7832 91.166C23.256 91.6481 23.8303 91.8916 24.5781 91.8916C25.3051 91.8916 25.8604 91.65 26.3164 91.168C26.7926 90.6652 27.0498 90.0247 27.0498 89.168C27.0498 88.3108 26.7925 87.6854 26.3252 87.2051L26.3154 87.1953L26.3066 87.1855C25.8482 86.6878 25.2961 86.4444 24.5781 86.4443ZM116.537 86.3604C115.801 86.3604 115.213 86.6 114.715 87.085C114.235 87.5517 113.981 88.1436 113.981 88.9443C113.982 89.7449 114.235 90.337 114.715 90.8037C115.213 91.2884 115.801 91.5283 116.537 91.5283C117.273 91.5283 117.861 91.2885 118.359 90.8037C118.839 90.337 119.093 89.7449 119.093 88.9443C119.093 88.1436 118.839 87.5517 118.359 87.085C117.861 86.6 117.274 86.3604 116.537 86.3604ZM104.397 74C105.339 74 106.17 74.3387 106.826 75.0068L106.95 75.1318C107.55 75.7659 107.861 76.5501 107.861 77.4355C107.861 78.379 107.509 79.2106 106.841 79.8789C106.177 80.5426 105.34 80.8721 104.397 80.8721C103.477 80.8721 102.661 80.5323 101.996 79.8926L101.982 79.8789C101.314 79.2105 100.962 78.379 100.962 77.4355C100.962 76.4911 101.315 75.6615 101.996 75.0068V75.0078C102.656 74.354 103.471 74 104.397 74ZM104.397 75C103.744 75 103.175 75.2423 102.689 75.7275C102.204 76.1941 101.962 76.7637 101.962 77.4355L101.973 77.6836C102.026 78.2512 102.265 78.7472 102.689 79.1719C103.114 79.5802 103.603 79.8103 104.156 79.8613L104.397 79.8721C105.002 79.8721 105.52 79.6932 105.953 79.3359L106.134 79.1719C106.619 78.6866 106.861 78.1075 106.861 77.4355C106.861 76.7637 106.619 76.1941 106.134 75.7275C105.667 75.2423 105.088 75 104.397 75ZM115.725 55.8604C116.74 55.8604 117.69 56.0659 118.553 56.4971L118.552 56.498C118.631 56.535 118.709 56.5736 118.785 56.6133V56.168H124.621V70.2998C124.621 72.861 123.879 74.9437 122.219 76.3311L122.218 76.3301C120.669 77.6586 118.753 78.2998 116.537 78.2998C114.422 78.2998 112.599 77.7577 111.151 76.5957C109.716 75.443 108.886 73.9396 108.71 72.1328L108.603 71.0361H112.06C111.437 70.6725 110.856 70.2076 110.322 69.6426L110.317 69.6377C108.85 68.0638 108.117 66.1466 108.117 63.9443C108.117 61.7258 108.848 59.8044 110.322 58.2451C111.792 56.6717 113.61 55.8605 115.725 55.8604ZM90.8965 55.8604C91.9352 55.8604 92.9005 56.0778 93.7695 56.5352C93.8233 56.5635 93.8761 56.5938 93.9287 56.623V56.168H99.7646V72.168H93.9287V71.7119C93.876 71.7412 93.8235 71.7724 93.7695 71.8008C92.9005 72.2581 91.9352 72.4756 90.8965 72.4756C88.7496 72.4756 86.9217 71.6245 85.4707 69.9814C84.2368 68.5841 83.5358 66.9457 83.3613 65.0996C83.1869 66.9456 82.4867 68.5842 81.2529 69.9814C79.8019 71.6245 77.9739 72.4755 75.8271 72.4756C74.7878 72.4756 73.8169 72.2581 72.9346 71.8057C72.8775 71.7764 72.8223 71.7442 72.7666 71.7139V78.0195H66.9307V56.168H72.7666V56.6211C72.8222 56.5908 72.8776 56.5595 72.9346 56.5303C73.8169 56.0778 74.7878 55.8604 75.8271 55.8604C77.9739 55.8604 79.8019 56.7115 81.2529 58.3545C82.4859 59.7508 83.1863 61.388 83.3613 63.2324C83.5364 61.3879 84.2377 59.7508 85.4707 58.3545C86.9217 56.7114 88.7496 55.8604 90.8965 55.8604ZM115.725 56.8604C113.895 56.8605 112.337 57.5505 111.049 58.9316C109.761 60.2943 109.117 61.9657 109.117 63.9443L109.125 64.3076C109.2 66.1114 109.841 67.661 111.049 68.9561C112.256 70.2334 113.702 70.9122 115.385 70.9922L115.725 71C116.476 71 117.178 70.8715 117.829 70.6143L118.105 70.4961C118.833 70.1415 119.393 69.6935 119.785 69.1523V70.8037L119.771 71.1846C119.703 72.0484 119.4 72.7338 118.861 73.2402L118.63 73.4434C118.075 73.8864 117.405 74.1084 116.621 74.1084L116.323 74.0996C114.868 74.0187 113.912 73.331 113.457 72.0361H109.705C109.854 73.5667 110.545 74.8271 111.777 75.8164C112.932 76.7436 114.399 77.2359 116.177 77.2939L116.537 77.2998C118.553 77.2998 120.233 76.7217 121.577 75.5645C122.855 74.497 123.533 72.8876 123.613 70.7373L123.621 70.2998V57.168H119.785V58.7363C119.393 58.1764 118.833 57.7276 118.105 57.3916C117.485 57.0812 116.799 56.9069 116.05 56.8682L115.725 56.8604ZM75.8271 56.8604C74.9311 56.8604 74.1186 57.0466 73.3906 57.4199C72.6628 57.7932 72.1212 58.2324 71.7666 58.7363V57.168H67.9307V77.0195H71.7666V69.5996C72.1212 70.1035 72.6628 70.5427 73.3906 70.916C74.0277 71.2427 74.7294 71.426 75.4951 71.4668L75.8271 71.4756C77.5596 71.4756 79.0378 70.8443 80.2617 69.5811L80.5029 69.3203C81.693 67.9728 82.3251 66.3788 82.3994 64.5391L82.4072 64.168C82.4072 62.1706 81.7723 60.453 80.5029 59.0156C79.3129 57.6682 77.8685 56.9523 76.1699 56.8682L75.8271 56.8604ZM118.543 71.3945L118.533 71.3994L118.524 71.4043C117.656 71.8052 116.718 72 115.725 72C115.296 72 114.88 71.9649 114.477 71.8994C114.653 72.3062 114.887 72.5739 115.16 72.7529C115.484 72.9648 115.948 73.1084 116.621 73.1084C117.279 73.1084 117.77 72.9046 118.165 72.5215L118.171 72.5166L118.177 72.5107C118.469 72.236 118.677 71.8509 118.752 71.2852C118.683 71.3217 118.614 71.3599 118.543 71.3945ZM24.5781 55.8604C26.8735 55.8604 28.8623 56.6715 30.4883 58.2764C32.1176 59.8845 32.9424 61.8681 32.9424 64.168C32.9424 66.4837 32.1195 68.4778 30.4883 70.0879L30.4834 70.0928C28.8565 71.6772 26.8691 72.4756 24.5781 72.4756C22.2869 72.4756 20.2988 71.6775 18.6719 70.0928L18.668 70.0879C17.5471 68.9816 16.8077 67.6938 16.4551 66.2451C15.9976 68.0363 15.0736 69.5246 13.6807 70.6738L13.6816 70.6748C12.2254 71.892 10.4292 72.4755 8.36426 72.4756C6.00893 72.4756 3.99328 71.6837 2.39258 70.083L2.3877 70.0781C0.797093 68.4662 0 66.4752 0 64.168C0 61.8627 0.795646 59.8795 2.3877 58.2852C3.98745 56.6641 6.00477 55.8604 8.36426 55.8604C10.4267 55.8604 12.2205 56.4421 13.6758 57.6562L13.9414 57.8838C15.192 59.0018 16.0292 60.4172 16.457 62.0977C16.8107 60.6598 17.5501 59.3798 18.668 58.2764C20.294 56.6715 22.2828 55.8604 24.5781 55.8604ZM39.376 64.6436C39.376 65.6653 39.5644 66.2523 39.7852 66.5615C39.9617 66.8087 40.2263 66.9756 40.7568 66.9756C41.3622 66.9755 41.7558 66.7693 42.0566 66.3682L42.0615 66.3613L42.0674 66.3545C42.3976 65.9299 42.6406 65.1968 42.6406 64V56.168H48.4766V72.168H42.6406V71.8096C41.8196 72.2541 40.8672 72.4755 39.8047 72.4756C37.8932 72.4756 36.2957 71.8176 35.1445 70.4365L35.1377 70.4287C34.038 69.0821 33.5401 67.3331 33.54 65.2881V56.168H39.376V64.6436ZM59.0098 55.8604C60.9295 55.8605 62.5368 56.5119 63.7061 57.8789H63.707C64.8771 59.2065 65.4131 60.9376 65.4131 62.9639V72.168H59.5771V63.6084C59.5771 62.7052 59.3864 62.1577 59.1396 61.8359L59.1299 61.8242C58.9077 61.5247 58.613 61.3604 58.1133 61.3604C57.4538 61.3604 56.9811 61.5821 56.6035 62.0205C56.257 62.4443 56.0049 63.1632 56.0049 64.3359V72.168H50.1689V56.168H56.0049V56.5439C56.8675 56.0835 57.8798 55.8604 59.0098 55.8604ZM107.329 72.168H101.493V56.168H107.329V72.168ZM135.162 55.8604C137.082 55.8605 138.689 56.5119 139.858 57.8789H139.859C141.029 59.2065 141.565 60.9376 141.565 62.9639V72.168H135.729V63.6084C135.729 62.7052 135.539 62.1577 135.292 61.8359L135.282 61.8242C135.06 61.5247 134.765 61.3604 134.266 61.3604C133.606 61.3604 133.133 61.5821 132.756 62.0205C132.409 62.4443 132.157 63.1632 132.157 64.3359V72.168H126.321V56.168H132.157V56.5439C133.02 56.0835 134.032 55.8604 135.162 55.8604ZM8.36426 56.8604C6.25492 56.8604 4.49961 57.5696 3.09961 58.9883L2.8457 59.2539C1.61506 60.6047 1 62.2428 1 64.168L1.00781 64.5488C1.08975 66.4368 1.78708 68.0459 3.09961 69.376C4.41214 70.6885 6.03665 71.3858 7.97266 71.4678L8.36426 71.4756C10.2307 71.4755 11.7895 70.9535 13.04 69.9082C14.3093 68.8629 15.1402 67.5002 15.5322 65.8203H11.5557C10.9397 67.2759 9.87592 68.0038 8.36426 68.0039L8.17383 68C7.23307 67.9596 6.45631 67.6153 5.84375 66.9678C5.23144 66.3029 4.90652 65.4413 4.86816 64.3828L4.86426 64.168C4.86426 63.0106 5.19042 62.0862 5.84375 61.3955C6.49706 60.6863 7.33769 60.332 8.36426 60.332L8.64258 60.3408C10.0072 60.4263 10.9782 61.151 11.5557 62.5156H15.5322C15.1647 60.9407 14.411 59.6451 13.2725 58.6279L13.04 58.4277C11.8675 57.4477 10.424 56.9274 8.70996 56.8662L8.36426 56.8604ZM24.5781 56.8604C22.5435 56.8604 20.8075 57.5696 19.3701 58.9883L19.1094 59.2578C17.846 60.6239 17.2139 62.2604 17.2139 64.168C17.2139 66.2213 17.9328 67.9573 19.3701 69.376C20.7176 70.6885 22.3276 71.3858 24.2002 71.4678L24.5781 71.4756C26.4856 71.4756 28.1302 70.8603 29.5127 69.6299L29.7861 69.376C31.1337 68.0459 31.8495 66.4368 31.9336 64.5488L31.9424 64.168C31.9424 62.2605 31.3102 60.6239 30.0469 59.2578L29.7861 58.9883C28.4386 57.6583 26.8286 56.9513 24.9561 56.8682L24.5781 56.8604ZM34.54 65.2881L34.5459 65.6367C34.5995 67.3594 35.0546 68.7459 35.9121 69.7959C36.7871 70.8459 37.9822 71.4041 39.4971 71.4697L39.8047 71.4756C41.5032 71.4755 42.782 70.8415 43.6406 69.5723V71.168H47.4766V57.168H43.6406V64L43.6279 64.4746C43.5708 65.5487 43.3138 66.3797 42.8564 66.9678C42.3525 67.6397 41.6526 67.9755 40.7568 67.9756L40.4678 67.9629C39.0735 67.8326 38.376 66.7259 38.376 64.6436V57.168H34.54V65.2881ZM90.8965 56.8604C89.0487 56.8604 87.49 57.5786 86.2207 59.0156L85.9893 59.2891C84.8738 60.6693 84.3164 62.2957 84.3164 64.168L84.3232 64.5391C84.3976 66.3788 85.0307 67.9728 86.2207 69.3203C87.4105 70.6674 88.8545 71.3835 90.5527 71.4678L90.8965 71.4756C91.6805 71.4756 92.3931 71.3328 93.0342 71.0469L93.3047 70.916C94.0139 70.5427 94.5554 70.1035 94.9287 69.5996V71.168H98.7646V57.168H94.9287V58.7363C94.6021 58.2954 94.1463 57.9044 93.5625 57.5635L93.3047 57.4199C92.6839 57.0932 91.9912 56.9099 91.2275 56.8691L90.8965 56.8604ZM59.0098 56.8604C57.1991 56.8604 55.8635 57.4943 55.0049 58.7637V57.168H51.1689V71.168H55.0049V64.3359C55.0049 63.0293 55.2857 62.0402 55.8457 61.3682C56.4244 60.6962 57.18 60.3604 58.1133 60.3604L58.3994 60.373C59.0464 60.4364 59.558 60.7214 59.9336 61.2275C60.3629 61.7875 60.5771 62.5817 60.5771 63.6084V71.168H64.4131V62.9639C64.4131 61.2315 63.9868 59.8272 63.1338 58.751L62.957 58.54C62.0646 57.4902 60.8525 56.9319 59.3203 56.8662L59.0098 56.8604ZM102.493 71.168H106.329V57.168H102.493V71.168ZM135.162 56.8604C133.351 56.8604 132.016 57.4943 131.157 58.7637V57.168H127.321V71.168H131.157V64.3359C131.157 63.0293 131.438 62.0402 131.998 61.3682C132.577 60.6962 133.332 60.3604 134.266 60.3604L134.552 60.373C135.199 60.4364 135.71 60.7214 136.086 61.2275C136.515 61.7875 136.729 62.5817 136.729 63.6084V71.168H140.565V62.9639C140.565 61.2315 140.139 59.8272 139.286 58.751L139.109 58.54C138.217 57.4902 137.005 56.9319 135.473 56.8662L135.162 56.8604ZM75.1836 60.3643C76.1561 60.4057 76.9401 60.7587 77.5352 61.4238C78.1885 62.1332 78.5146 63.048 78.5146 64.168C78.5146 65.288 78.1885 66.2028 77.5352 66.9121C76.9006 67.6214 76.0512 67.9755 74.9873 67.9756L74.79 67.9717C73.8816 67.9329 73.1302 67.6228 72.5361 67.041L72.4111 66.9121C71.7765 66.2028 71.459 65.288 71.459 64.168C71.459 63.048 71.7765 62.1332 72.4111 61.4238C73.0645 60.7146 73.9234 60.3604 74.9873 60.3604L75.1836 60.3643ZM91.9053 60.3643C92.8775 60.4058 93.6609 60.759 94.2559 61.4238C94.9092 62.1332 95.2363 63.048 95.2363 64.168L95.2324 64.376C95.1941 65.4017 94.8683 66.2472 94.2559 66.9121C93.6212 67.6213 92.7719 67.9756 91.708 67.9756C90.7106 67.9755 89.8934 67.6644 89.2568 67.041L89.1318 66.9121C88.537 66.2472 88.2208 65.4017 88.1836 64.376L88.1807 64.168C88.1807 63.048 88.4972 62.1331 89.1318 61.4238C89.7851 60.7146 90.6441 60.3604 91.708 60.3604L91.9053 60.3643ZM24.7617 60.4482C25.6694 60.4898 26.4295 60.8429 27.042 61.5078C27.714 62.1985 28.0498 63.0853 28.0498 64.168C28.0498 65.2506 27.714 66.1471 27.042 66.8564C26.3887 67.5469 25.5673 67.8916 24.5781 67.8916L24.3906 67.8877C23.5271 67.8498 22.7919 67.5481 22.1855 66.9814L22.0576 66.8564C21.4452 66.1915 21.1204 65.3621 21.082 64.3691L21.0781 64.168C21.0781 63.0854 21.4044 62.1985 22.0576 61.5078C22.7296 60.7985 23.5701 60.4443 24.5781 60.4443L24.7617 60.4482ZM116.721 60.3643C117.631 60.4036 118.409 60.7382 119.057 61.3682C119.747 62.0402 120.093 62.899 120.093 63.9443L120.089 64.1377C120.048 65.0958 119.704 65.8895 119.057 66.5195C118.366 67.1915 117.526 67.5283 116.537 67.5283L116.354 67.5244C115.443 67.4851 114.664 67.1496 114.017 66.5195C113.369 65.8896 113.026 65.0956 112.985 64.1377L112.981 63.9443C112.981 62.9643 113.285 62.148 113.892 61.4961L114.017 61.3682C114.707 60.6962 115.548 60.3604 116.537 60.3604L116.721 60.3643ZM8.36426 61.332C7.59678 61.332 7.02977 61.5839 6.5791 62.0732L6.57031 62.083C6.12919 62.5493 5.86426 63.2076 5.86426 64.168C5.86426 65.1258 6.12807 65.7992 6.57715 66.2881C7.02436 66.7573 7.59195 67.0039 8.36426 67.0039C8.95422 67.0038 9.39305 66.8643 9.73145 66.6328C10.0729 66.3992 10.3845 66.0221 10.6348 65.4307L10.8936 64.8203H16.2393C16.2244 64.6058 16.2139 64.3884 16.2139 64.168C16.2139 63.9475 16.2241 63.7302 16.2393 63.5156H10.8936L10.6348 62.9053C10.3845 62.3138 10.0729 61.9368 9.73145 61.7031C9.39305 61.4716 8.95422 61.3321 8.36426 61.332ZM74.9873 61.3604C74.1738 61.3604 73.594 61.6179 73.1514 62.0957C72.7119 62.5895 72.459 63.2512 72.459 64.168C72.459 65.0832 72.7114 65.7438 73.1494 66.2373C73.5923 66.7167 74.1723 66.9756 74.9873 66.9756C75.804 66.9755 76.3687 66.716 76.79 66.2451L76.7949 66.2402L76.9609 66.041C77.3162 65.5706 77.5146 64.9663 77.5146 64.168C77.5146 63.3697 77.3162 62.7653 76.9609 62.2949L76.7949 62.0957L76.79 62.0908C76.3687 61.6199 75.804 61.3604 74.9873 61.3604ZM91.708 61.3604C90.8947 61.3604 90.3156 61.6181 89.873 62.0957C89.4335 62.5895 89.1807 63.251 89.1807 64.168C89.1807 65.0833 89.4329 65.7438 89.8711 66.2373C90.3139 66.7165 90.8933 66.9755 91.708 66.9756C92.5248 66.9756 93.0893 66.716 93.5107 66.2451L93.5156 66.2402L93.5205 66.2344C93.9766 65.7392 94.2363 65.0802 94.2363 64.168C94.2363 63.2557 93.9766 62.5967 93.5205 62.1016L93.5156 62.0957L93.5107 62.0908C93.0893 61.6199 92.5248 61.3604 91.708 61.3604ZM24.5781 61.4443C23.928 61.4443 23.407 61.6342 22.9678 62.0186L22.7842 62.1953C22.3313 62.6742 22.0781 63.3028 22.0781 64.168C22.0781 65.026 22.3281 65.6661 22.7832 66.166C23.256 66.6481 23.8303 66.8916 24.5781 66.8916C25.3051 66.8916 25.8604 66.65 26.3164 66.168C26.7926 65.6652 27.0498 65.0247 27.0498 64.168C27.0498 63.3108 26.7925 62.6854 26.3252 62.2051L26.3154 62.1953L26.3066 62.1855C25.8482 61.6878 25.2961 61.4444 24.5781 61.4443ZM116.537 61.3604C115.801 61.3604 115.213 61.6 114.715 62.085C114.235 62.5517 113.981 63.1436 113.981 63.9443C113.982 64.7449 114.235 65.337 114.715 65.8037C115.213 66.2884 115.801 66.5283 116.537 66.5283C117.273 66.5283 117.861 66.2885 118.359 65.8037C118.839 65.337 119.093 64.7449 119.093 63.9443C119.093 63.1436 118.839 62.5517 118.359 62.085C117.861 61.6 117.274 61.3604 116.537 61.3604ZM104.397 49C105.339 49 106.17 49.3387 106.826 50.0068L106.95 50.1318C107.55 50.7659 107.861 51.5501 107.861 52.4355C107.861 53.379 107.509 54.2106 106.841 54.8789C106.177 55.5426 105.34 55.8721 104.397 55.8721C103.477 55.8721 102.661 55.5323 101.996 54.8926L101.982 54.8789C101.314 54.2105 100.962 53.379 100.962 52.4355C100.962 51.4911 101.315 50.6615 101.996 50.0068V50.0078C102.656 49.354 103.471 49 104.397 49ZM104.397 50C103.744 50 103.175 50.2423 102.689 50.7275C102.204 51.1941 101.962 51.7637 101.962 52.4355L101.973 52.6836C102.026 53.2512 102.265 53.7472 102.689 54.1719C103.114 54.5802 103.603 54.8103 104.156 54.8613L104.397 54.8721C105.002 54.8721 105.52 54.6932 105.953 54.3359L106.134 54.1719C106.619 53.6866 106.861 53.1075 106.861 52.4355C106.861 51.7637 106.619 51.1941 106.134 50.7275C105.667 50.2423 105.088 50 104.397 50ZM115.725 30.8604C116.74 30.8604 117.69 31.0659 118.553 31.4971L118.552 31.498C118.631 31.535 118.709 31.5736 118.785 31.6133V31.168H124.621V45.2998C124.621 47.861 123.879 49.9437 122.219 51.3311L122.218 51.3301C120.669 52.6586 118.753 53.2998 116.537 53.2998C114.422 53.2998 112.599 52.7577 111.151 51.5957C109.716 50.443 108.886 48.9396 108.71 47.1328L108.603 46.0361H112.06C111.437 45.6725 110.856 45.2076 110.322 44.6426L110.317 44.6377C108.85 43.0638 108.117 41.1466 108.117 38.9443C108.117 36.7258 108.848 34.8044 110.322 33.2451C111.792 31.6717 113.61 30.8605 115.725 30.8604ZM90.8965 30.8604C91.9352 30.8604 92.9005 31.0778 93.7695 31.5352C93.8233 31.5635 93.8761 31.5938 93.9287 31.623V31.168H99.7646V47.168H93.9287V46.7119C93.876 46.7412 93.8235 46.7724 93.7695 46.8008C92.9005 47.2581 91.9352 47.4756 90.8965 47.4756C88.7496 47.4756 86.9217 46.6245 85.4707 44.9814C84.2368 43.5841 83.5358 41.9457 83.3613 40.0996C83.1869 41.9456 82.4867 43.5842 81.2529 44.9814C79.8019 46.6245 77.9739 47.4755 75.8271 47.4756C74.7878 47.4756 73.8169 47.2581 72.9346 46.8057C72.8775 46.7764 72.8223 46.7442 72.7666 46.7139V53.0195H66.9307V31.168H72.7666V31.6211C72.8222 31.5908 72.8776 31.5595 72.9346 31.5303C73.8169 31.0778 74.7878 30.8604 75.8271 30.8604C77.9739 30.8604 79.8019 31.7115 81.2529 33.3545C82.4859 34.7508 83.1863 36.388 83.3613 38.2324C83.5364 36.3879 84.2377 34.7508 85.4707 33.3545C86.9217 31.7114 88.7496 30.8604 90.8965 30.8604ZM115.725 31.8604C113.895 31.8605 112.337 32.5505 111.049 33.9316C109.761 35.2943 109.117 36.9657 109.117 38.9443L109.125 39.3076C109.2 41.1114 109.841 42.661 111.049 43.9561C112.256 45.2334 113.702 45.9122 115.385 45.9922L115.725 46C116.476 46 117.178 45.8715 117.829 45.6143L118.105 45.4961C118.833 45.1415 119.393 44.6935 119.785 44.1523V45.8037L119.771 46.1846C119.703 47.0484 119.4 47.7338 118.861 48.2402L118.63 48.4434C118.075 48.8864 117.405 49.1084 116.621 49.1084L116.323 49.0996C114.868 49.0187 113.912 48.331 113.457 47.0361H109.705C109.854 48.5667 110.545 49.8271 111.777 50.8164C112.932 51.7436 114.399 52.2359 116.177 52.2939L116.537 52.2998C118.553 52.2998 120.233 51.7217 121.577 50.5645C122.855 49.497 123.533 47.8876 123.613 45.7373L123.621 45.2998V32.168H119.785V33.7363C119.393 33.1764 118.833 32.7276 118.105 32.3916C117.485 32.0812 116.799 31.9069 116.05 31.8682L115.725 31.8604ZM75.8271 31.8604C74.9311 31.8604 74.1186 32.0466 73.3906 32.4199C72.6628 32.7932 72.1212 33.2324 71.7666 33.7363V32.168H67.9307V52.0195H71.7666V44.5996C72.1212 45.1035 72.6628 45.5427 73.3906 45.916C74.0277 46.2427 74.7294 46.426 75.4951 46.4668L75.8271 46.4756C77.5596 46.4756 79.0378 45.8443 80.2617 44.5811L80.5029 44.3203C81.693 42.9728 82.3251 41.3788 82.3994 39.5391L82.4072 39.168C82.4072 37.1706 81.7723 35.453 80.5029 34.0156C79.3129 32.6682 77.8685 31.9523 76.1699 31.8682L75.8271 31.8604ZM118.543 46.3945L118.533 46.3994L118.524 46.4043C117.656 46.8052 116.718 47 115.725 47C115.296 47 114.88 46.9649 114.477 46.8994C114.653 47.3062 114.887 47.5739 115.16 47.7529C115.484 47.9648 115.948 48.1084 116.621 48.1084C117.279 48.1084 117.77 47.9046 118.165 47.5215L118.171 47.5166L118.177 47.5107C118.469 47.236 118.677 46.8509 118.752 46.2852C118.683 46.3217 118.614 46.3599 118.543 46.3945ZM24.5781 30.8604C26.8735 30.8604 28.8623 31.6715 30.4883 33.2764C32.1176 34.8845 32.9424 36.8681 32.9424 39.168C32.9424 41.4837 32.1195 43.4778 30.4883 45.0879L30.4834 45.0928C28.8565 46.6772 26.8691 47.4756 24.5781 47.4756C22.2869 47.4756 20.2988 46.6775 18.6719 45.0928L18.668 45.0879C17.5471 43.9816 16.8077 42.6938 16.4551 41.2451C15.9976 43.0363 15.0736 44.5246 13.6807 45.6738L13.6816 45.6748C12.2254 46.892 10.4292 47.4755 8.36426 47.4756C6.00893 47.4756 3.99328 46.6837 2.39258 45.083L2.3877 45.0781C0.797093 43.4662 0 41.4752 0 39.168C0 36.8627 0.795646 34.8795 2.3877 33.2852C3.98745 31.6641 6.00477 30.8604 8.36426 30.8604C10.4267 30.8604 12.2205 31.4421 13.6758 32.6562L13.9414 32.8838C15.192 34.0018 16.0292 35.4172 16.457 37.0977C16.8107 35.6598 17.5501 34.3798 18.668 33.2764C20.294 31.6715 22.2828 30.8604 24.5781 30.8604ZM39.376 39.6436C39.376 40.6653 39.5644 41.2523 39.7852 41.5615C39.9617 41.8087 40.2263 41.9756 40.7568 41.9756C41.3622 41.9755 41.7558 41.7693 42.0566 41.3682L42.0615 41.3613L42.0674 41.3545C42.3976 40.9299 42.6406 40.1968 42.6406 39V31.168H48.4766V47.168H42.6406V46.8096C41.8196 47.2541 40.8672 47.4755 39.8047 47.4756C37.8932 47.4756 36.2957 46.8176 35.1445 45.4365L35.1377 45.4287C34.038 44.0821 33.5401 42.3331 33.54 40.2881V31.168H39.376V39.6436ZM59.0098 30.8604C60.9295 30.8605 62.5368 31.5119 63.7061 32.8789H63.707C64.8771 34.2065 65.4131 35.9376 65.4131 37.9639V47.168H59.5771V38.6084C59.5771 37.7052 59.3864 37.1577 59.1396 36.8359L59.1299 36.8242C58.9077 36.5247 58.613 36.3604 58.1133 36.3604C57.4538 36.3604 56.9811 36.5821 56.6035 37.0205C56.257 37.4443 56.0049 38.1632 56.0049 39.3359V47.168H50.1689V31.168H56.0049V31.5439C56.8675 31.0835 57.8798 30.8604 59.0098 30.8604ZM107.329 47.168H101.493V31.168H107.329V47.168ZM135.162 30.8604C137.082 30.8605 138.689 31.5119 139.858 32.8789H139.859C141.029 34.2065 141.565 35.9376 141.565 37.9639V47.168H135.729V38.6084C135.729 37.7052 135.539 37.1577 135.292 36.8359L135.282 36.8242C135.06 36.5247 134.765 36.3604 134.266 36.3604C133.606 36.3604 133.133 36.5821 132.756 37.0205C132.409 37.4443 132.157 38.1632 132.157 39.3359V47.168H126.321V31.168H132.157V31.5439C133.02 31.0835 134.032 30.8604 135.162 30.8604ZM8.36426 31.8604C6.25492 31.8604 4.49961 32.5696 3.09961 33.9883L2.8457 34.2539C1.61506 35.6047 1 37.2428 1 39.168L1.00781 39.5488C1.08975 41.4368 1.78708 43.0459 3.09961 44.376C4.41214 45.6885 6.03665 46.3858 7.97266 46.4678L8.36426 46.4756C10.2307 46.4755 11.7895 45.9535 13.04 44.9082C14.3093 43.8629 15.1402 42.5002 15.5322 40.8203H11.5557C10.9397 42.2759 9.87592 43.0038 8.36426 43.0039L8.17383 43C7.23307 42.9596 6.45631 42.6153 5.84375 41.9678C5.23144 41.3029 4.90652 40.4413 4.86816 39.3828L4.86426 39.168C4.86426 38.0106 5.19042 37.0862 5.84375 36.3955C6.49706 35.6863 7.33769 35.332 8.36426 35.332L8.64258 35.3408C10.0072 35.4263 10.9782 36.151 11.5557 37.5156H15.5322C15.1647 35.9407 14.411 34.6451 13.2725 33.6279L13.04 33.4277C11.8675 32.4477 10.424 31.9274 8.70996 31.8662L8.36426 31.8604ZM24.5781 31.8604C22.5435 31.8604 20.8075 32.5696 19.3701 33.9883L19.1094 34.2578C17.846 35.6239 17.2139 37.2604 17.2139 39.168C17.2139 41.2213 17.9328 42.9573 19.3701 44.376C20.7176 45.6885 22.3276 46.3858 24.2002 46.4678L24.5781 46.4756C26.4856 46.4756 28.1302 45.8603 29.5127 44.6299L29.7861 44.376C31.1337 43.0459 31.8495 41.4368 31.9336 39.5488L31.9424 39.168C31.9424 37.2605 31.3102 35.6239 30.0469 34.2578L29.7861 33.9883C28.4386 32.6583 26.8286 31.9513 24.9561 31.8682L24.5781 31.8604ZM34.54 40.2881L34.5459 40.6367C34.5995 42.3594 35.0546 43.7459 35.9121 44.7959C36.7871 45.8459 37.9822 46.4041 39.4971 46.4697L39.8047 46.4756C41.5032 46.4755 42.782 45.8415 43.6406 44.5723V46.168H47.4766V32.168H43.6406V39L43.6279 39.4746C43.5708 40.5487 43.3138 41.3797 42.8564 41.9678C42.3525 42.6397 41.6526 42.9755 40.7568 42.9756L40.4678 42.9629C39.0735 42.8326 38.376 41.7259 38.376 39.6436V32.168H34.54V40.2881ZM90.8965 31.8604C89.0487 31.8604 87.49 32.5786 86.2207 34.0156L85.9893 34.2891C84.8738 35.6693 84.3164 37.2957 84.3164 39.168L84.3232 39.5391C84.3976 41.3788 85.0307 42.9728 86.2207 44.3203C87.4105 45.6674 88.8545 46.3835 90.5527 46.4678L90.8965 46.4756C91.6805 46.4756 92.3931 46.3328 93.0342 46.0469L93.3047 45.916C94.0139 45.5427 94.5554 45.1035 94.9287 44.5996V46.168H98.7646V32.168H94.9287V33.7363C94.6021 33.2954 94.1463 32.9044 93.5625 32.5635L93.3047 32.4199C92.6839 32.0932 91.9912 31.9099 91.2275 31.8691L90.8965 31.8604ZM59.0098 31.8604C57.1991 31.8604 55.8635 32.4943 55.0049 33.7637V32.168H51.1689V46.168H55.0049V39.3359C55.0049 38.0293 55.2857 37.0402 55.8457 36.3682C56.4244 35.6962 57.18 35.3604 58.1133 35.3604L58.3994 35.373C59.0464 35.4364 59.558 35.7214 59.9336 36.2275C60.3629 36.7875 60.5771 37.5817 60.5771 38.6084V46.168H64.4131V37.9639C64.4131 36.2315 63.9868 34.8272 63.1338 33.751L62.957 33.54C62.0646 32.4902 60.8525 31.9319 59.3203 31.8662L59.0098 31.8604ZM102.493 46.168H106.329V32.168H102.493V46.168ZM135.162 31.8604C133.351 31.8604 132.016 32.4943 131.157 33.7637V32.168H127.321V46.168H131.157V39.3359C131.157 38.0293 131.438 37.0402 131.998 36.3682C132.577 35.6962 133.332 35.3604 134.266 35.3604L134.552 35.373C135.199 35.4364 135.71 35.7214 136.086 36.2275C136.515 36.7875 136.729 37.5817 136.729 38.6084V46.168H140.565V37.9639C140.565 36.2315 140.139 34.8272 139.286 33.751L139.109 33.54C138.217 32.4902 137.005 31.9319 135.473 31.8662L135.162 31.8604ZM75.1836 35.3643C76.1561 35.4057 76.9401 35.7587 77.5352 36.4238C78.1885 37.1332 78.5146 38.048 78.5146 39.168C78.5146 40.288 78.1885 41.2028 77.5352 41.9121C76.9006 42.6214 76.0512 42.9755 74.9873 42.9756L74.79 42.9717C73.8816 42.9329 73.1302 42.6228 72.5361 42.041L72.4111 41.9121C71.7765 41.2028 71.459 40.288 71.459 39.168C71.459 38.048 71.7765 37.1332 72.4111 36.4238C73.0645 35.7146 73.9234 35.3604 74.9873 35.3604L75.1836 35.3643ZM91.9053 35.3643C92.8775 35.4058 93.6609 35.759 94.2559 36.4238C94.9092 37.1332 95.2363 38.048 95.2363 39.168L95.2324 39.376C95.1941 40.4017 94.8683 41.2472 94.2559 41.9121C93.6212 42.6213 92.7719 42.9756 91.708 42.9756C90.7106 42.9755 89.8934 42.6644 89.2568 42.041L89.1318 41.9121C88.537 41.2472 88.2208 40.4017 88.1836 39.376L88.1807 39.168C88.1807 38.048 88.4972 37.1331 89.1318 36.4238C89.7851 35.7146 90.6441 35.3604 91.708 35.3604L91.9053 35.3643ZM24.7617 35.4482C25.6694 35.4898 26.4295 35.8429 27.042 36.5078C27.714 37.1985 28.0498 38.0853 28.0498 39.168C28.0498 40.2506 27.714 41.1471 27.042 41.8564C26.3887 42.5469 25.5673 42.8916 24.5781 42.8916L24.3906 42.8877C23.5271 42.8498 22.7919 42.5481 22.1855 41.9814L22.0576 41.8564C21.4452 41.1915 21.1204 40.3621 21.082 39.3691L21.0781 39.168C21.0781 38.0854 21.4044 37.1985 22.0576 36.5078C22.7296 35.7985 23.5701 35.4443 24.5781 35.4443L24.7617 35.4482ZM116.721 35.3643C117.631 35.4036 118.409 35.7382 119.057 36.3682C119.747 37.0402 120.093 37.899 120.093 38.9443L120.089 39.1377C120.048 40.0958 119.704 40.8895 119.057 41.5195C118.366 42.1915 117.526 42.5283 116.537 42.5283L116.354 42.5244C115.443 42.4851 114.664 42.1496 114.017 41.5195C113.369 40.8896 113.026 40.0956 112.985 39.1377L112.981 38.9443C112.981 37.9643 113.285 37.148 113.892 36.4961L114.017 36.3682C114.707 35.6962 115.548 35.3604 116.537 35.3604L116.721 35.3643ZM8.36426 36.332C7.59678 36.332 7.02977 36.5839 6.5791 37.0732L6.57031 37.083C6.12919 37.5493 5.86426 38.2076 5.86426 39.168C5.86426 40.1258 6.12807 40.7992 6.57715 41.2881C7.02436 41.7573 7.59195 42.0039 8.36426 42.0039C8.95422 42.0038 9.39305 41.8643 9.73145 41.6328C10.0729 41.3992 10.3845 41.0221 10.6348 40.4307L10.8936 39.8203H16.2393C16.2244 39.6058 16.2139 39.3884 16.2139 39.168C16.2139 38.9475 16.2241 38.7302 16.2393 38.5156H10.8936L10.6348 37.9053C10.3845 37.3138 10.0729 36.9368 9.73145 36.7031C9.39305 36.4716 8.95422 36.3321 8.36426 36.332ZM74.9873 36.3604C74.1738 36.3604 73.594 36.6179 73.1514 37.0957C72.7119 37.5895 72.459 38.2512 72.459 39.168C72.459 40.0832 72.7114 40.7438 73.1494 41.2373C73.5923 41.7167 74.1723 41.9756 74.9873 41.9756C75.804 41.9755 76.3687 41.716 76.79 41.2451L76.7949 41.2402L76.9609 41.041C77.3162 40.5706 77.5146 39.9663 77.5146 39.168C77.5146 38.3697 77.3162 37.7653 76.9609 37.2949L76.7949 37.0957L76.79 37.0908C76.3687 36.6199 75.804 36.3604 74.9873 36.3604ZM91.708 36.3604C90.8947 36.3604 90.3156 36.6181 89.873 37.0957C89.4335 37.5895 89.1807 38.251 89.1807 39.168C89.1807 40.0833 89.4329 40.7438 89.8711 41.2373C90.3139 41.7165 90.8933 41.9755 91.708 41.9756C92.5248 41.9756 93.0893 41.716 93.5107 41.2451L93.5156 41.2402L93.5205 41.2344C93.9766 40.7392 94.2363 40.0802 94.2363 39.168C94.2363 38.2557 93.9766 37.5967 93.5205 37.1016L93.5156 37.0957L93.5107 37.0908C93.0893 36.6199 92.5248 36.3604 91.708 36.3604ZM24.5781 36.4443C23.928 36.4443 23.407 36.6342 22.9678 37.0186L22.7842 37.1953C22.3313 37.6742 22.0781 38.3028 22.0781 39.168C22.0781 40.026 22.3281 40.6661 22.7832 41.166C23.256 41.6481 23.8303 41.8916 24.5781 41.8916C25.3051 41.8916 25.8604 41.65 26.3164 41.168C26.7926 40.6652 27.0498 40.0247 27.0498 39.168C27.0498 38.3108 26.7925 37.6854 26.3252 37.2051L26.3154 37.1953L26.3066 37.1855C25.8482 36.6878 25.2961 36.4444 24.5781 36.4443ZM116.537 36.3604C115.801 36.3604 115.213 36.6 114.715 37.085C114.235 37.5517 113.981 38.1436 113.981 38.9443C113.982 39.7449 114.235 40.337 114.715 40.8037C115.213 41.2884 115.801 41.5283 116.537 41.5283C117.273 41.5283 117.861 41.2885 118.359 40.8037C118.839 40.337 119.093 39.7449 119.093 38.9443C119.093 38.1436 118.839 37.5517 118.359 37.085C117.861 36.6 117.274 36.3604 116.537 36.3604ZM104.397 24C105.339 24 106.17 24.3387 106.826 25.0068L106.95 25.1318C107.55 25.7659 107.861 26.5501 107.861 27.4355C107.861 28.379 107.509 29.2106 106.841 29.8789C106.177 30.5426 105.34 30.8721 104.397 30.8721C103.477 30.8721 102.661 30.5323 101.996 29.8926L101.982 29.8789C101.314 29.2105 100.962 28.379 100.962 27.4355C100.962 26.4911 101.315 25.6615 101.996 25.0068V25.0078C102.656 24.354 103.471 24 104.397 24ZM104.397 25C103.744 25 103.175 25.2423 102.689 25.7275C102.204 26.1941 101.962 26.7637 101.962 27.4355L101.973 27.6836C102.026 28.2512 102.265 28.7472 102.689 29.1719C103.114 29.5802 103.603 29.8103 104.156 29.8613L104.397 29.8721C105.002 29.8721 105.52 29.6932 105.953 29.3359L106.134 29.1719C106.619 28.6866 106.861 28.1075 106.861 27.4355C106.861 26.7637 106.619 26.1941 106.134 25.7275C105.667 25.2423 105.088 25 104.397 25ZM115.725 6.86035C116.602 6.86035 117.396 7.03693 118.105 7.3916C118.833 7.72759 119.393 8.17638 119.785 8.73633V7.16797H123.621V20.2998C123.621 22.6705 122.94 24.4258 121.577 25.5645C120.233 26.7217 118.553 27.2998 116.537 27.2998C114.596 27.2998 113.009 26.8055 111.777 25.8164C110.545 24.8271 109.854 23.5667 109.705 22.0361H113.457C113.942 23.4174 114.997 24.1084 116.621 24.1084C117.517 24.1084 118.264 23.8189 118.861 23.2402C119.477 22.6616 119.785 21.849 119.785 20.8037V19.1523C119.393 19.6935 118.833 20.1415 118.105 20.4961C117.377 20.8321 116.583 21 115.725 21C113.895 20.9999 112.337 20.3186 111.049 18.9561C109.761 17.5748 109.117 15.9041 109.117 13.9443C109.117 11.9657 109.761 10.2943 111.049 8.93164C112.337 7.55046 113.895 6.86046 115.725 6.86035ZM75.8271 6.86035C77.675 6.86039 79.2337 7.57848 80.5029 9.01562C81.7723 10.453 82.4072 12.1706 82.4072 14.168C82.4072 16.1653 81.7723 17.883 80.5029 19.3203C79.2337 20.7575 77.675 21.4755 75.8271 21.4756C74.9311 21.4756 74.1186 21.2893 73.3906 20.916C72.6628 20.5427 72.1212 20.1035 71.7666 19.5996V27.0195H67.9307V7.16797H71.7666V8.73633C72.1212 8.23239 72.6628 7.79322 73.3906 7.41992C74.1186 7.04659 74.9311 6.86035 75.8271 6.86035ZM8.36426 6.86035C10.2307 6.86043 11.7895 7.38248 13.04 8.42773C14.3093 9.47302 15.1402 10.8357 15.5322 12.5156H11.5557C10.9397 11.06 9.87592 10.3322 8.36426 10.332C7.33769 10.332 6.49706 10.6863 5.84375 11.3955C5.19042 12.0862 4.86426 13.0106 4.86426 14.168C4.86426 15.3252 5.19051 16.2585 5.84375 16.9678C6.49708 17.6584 7.33759 18.0039 8.36426 18.0039C9.87592 18.0038 10.9397 17.2759 11.5557 15.8203H15.5322C15.1402 17.5002 14.3093 18.8629 13.04 19.9082C11.7895 20.9535 10.2307 21.4755 8.36426 21.4756C6.25492 21.4756 4.49961 20.776 3.09961 19.376C1.69969 17.9573 1 16.2212 1 14.168C1 12.1148 1.69979 10.3882 3.09961 8.98828C4.49961 7.56961 6.25492 6.86035 8.36426 6.86035ZM24.5781 6.86035C26.6128 6.86037 28.3488 7.56963 29.7861 8.98828C31.2233 10.4069 31.9424 12.1334 31.9424 14.168C31.9424 16.2213 31.2234 17.9573 29.7861 19.376C28.3488 20.776 26.6128 21.4756 24.5781 21.4756C22.5435 21.4756 20.8074 20.7759 19.3701 19.376C17.9328 17.9573 17.2139 16.2213 17.2139 14.168C17.2139 12.1334 17.9329 10.4069 19.3701 8.98828C20.8075 7.56961 22.5435 6.86035 24.5781 6.86035ZM38.376 14.6436C38.376 16.8649 39.1702 17.9756 40.7568 17.9756C41.6526 17.9755 42.3525 17.6397 42.8564 16.9678C43.379 16.2958 43.6406 15.3065 43.6406 14V7.16797H47.4766V21.168H43.6406V19.5723C42.782 20.8415 41.5032 21.4755 39.8047 21.4756C38.1434 21.4756 36.8454 20.9159 35.9121 19.7959C34.9976 18.6759 34.5401 17.1733 34.54 15.2881V7.16797H38.376V14.6436ZM90.8965 6.86035C91.7924 6.86038 92.5954 7.04662 93.3047 7.41992C94.0139 7.79322 94.5554 8.2324 94.9287 8.73633V7.16797H98.7646V21.168H94.9287V19.5996C94.5554 20.1035 94.0139 20.5427 93.3047 20.916C92.5954 21.2893 91.7924 21.4756 90.8965 21.4756C89.0487 21.4756 87.49 20.7574 86.2207 19.3203C84.9514 17.883 84.3164 16.1653 84.3164 14.168C84.3164 12.1706 84.9514 10.453 86.2207 9.01562C87.49 7.57857 89.0487 6.86035 90.8965 6.86035ZM59.0098 6.86035C60.6895 6.86046 62.0051 7.4202 62.957 8.54004C63.9277 9.64135 64.4131 11.1159 64.4131 12.9639V21.168H60.5771V13.6084C60.5771 12.5817 60.3629 11.7875 59.9336 11.2275C59.5043 10.649 58.8972 10.3604 58.1133 10.3604C57.18 10.3604 56.4244 10.6962 55.8457 11.3682C55.2857 12.0402 55.0049 13.0293 55.0049 14.3359V21.168H51.1689V7.16797H55.0049V8.76367C55.8635 7.49435 57.1991 6.86035 59.0098 6.86035ZM106.329 21.168H102.493V7.16797H106.329V21.168ZM135.162 6.86035C136.842 6.86046 138.157 7.4202 139.109 8.54004C140.08 9.64135 140.565 11.1159 140.565 12.9639V21.168H136.729V13.6084C136.729 12.5817 136.515 11.7875 136.086 11.2275C135.657 10.649 135.05 10.3604 134.266 10.3604C133.332 10.3604 132.577 10.6962 131.998 11.3682C131.438 12.0402 131.157 13.0293 131.157 14.3359V21.168H127.321V7.16797H131.157V8.76367C132.016 7.49435 133.351 6.86035 135.162 6.86035ZM74.9873 10.3604C73.9234 10.3604 73.0645 10.7146 72.4111 11.4238C71.7765 12.1332 71.459 13.048 71.459 14.168C71.459 15.288 71.7765 16.2028 72.4111 16.9121C73.0645 17.6214 73.9234 17.9756 74.9873 17.9756C76.0512 17.9755 76.9006 17.6214 77.5352 16.9121C78.1885 16.2028 78.5146 15.288 78.5146 14.168C78.5146 13.048 78.1885 12.1332 77.5352 11.4238C76.9006 10.7146 76.0512 10.3604 74.9873 10.3604ZM91.708 10.3604C90.6441 10.3604 89.7851 10.7146 89.1318 11.4238C88.4972 12.1331 88.1807 13.048 88.1807 14.168C88.1807 15.2879 88.4972 16.2028 89.1318 16.9121C89.7851 17.6214 90.6441 17.9755 91.708 17.9756C92.7719 17.9756 93.6212 17.6213 94.2559 16.9121C94.9092 16.2028 95.2363 15.288 95.2363 14.168C95.2363 13.048 94.9092 12.1332 94.2559 11.4238C93.6212 10.7147 92.7719 10.3604 91.708 10.3604ZM24.5781 10.4443C23.5701 10.4443 22.7296 10.7985 22.0576 11.5078C21.4044 12.1985 21.0781 13.0854 21.0781 14.168C21.0781 15.2506 21.4043 16.1471 22.0576 16.8564C22.7296 17.5471 23.5701 17.8916 24.5781 17.8916C25.5673 17.8916 26.3887 17.5469 27.042 16.8564C27.714 16.1471 28.0498 15.2506 28.0498 14.168C28.0498 13.0853 27.714 12.1985 27.042 11.5078C26.3887 10.7986 25.5674 10.4444 24.5781 10.4443ZM116.537 10.3604C115.548 10.3604 114.707 10.6962 114.017 11.3682C113.326 12.0401 112.981 12.8992 112.981 13.9443C112.982 14.9893 113.326 15.8477 114.017 16.5195C114.707 17.1915 115.548 17.5283 116.537 17.5283C117.526 17.5283 118.366 17.1915 119.057 16.5195C119.747 15.8476 120.093 14.9895 120.093 13.9443C120.093 12.899 119.747 12.0402 119.057 11.3682C118.366 10.6962 117.526 10.3604 116.537 10.3604ZM104.397 0C105.088 0 105.667 0.24226 106.134 0.727539C106.619 1.19411 106.861 1.76373 106.861 2.43555C106.861 3.10746 106.619 3.68658 106.134 4.17188C105.667 4.63854 105.088 4.87207 104.397 4.87207C103.744 4.87206 103.175 4.63853 102.689 4.17188C102.204 3.68656 101.962 3.10751 101.962 2.43555C101.962 1.76373 102.204 1.19411 102.689 0.727539C103.175 0.242342 103.744 1.16287e-05 104.397 0Z" fill="url(#paint0_linear_26_825)" fill-opacity="0.77"/>
<defs>
<linearGradient id="paint0_linear_26_825" x1="9.54785" y1="55.168" x2="135.548" y2="55.168" gradientUnits="userSpaceOnUse">
<stop stop-color="#59320B"/>
<stop offset="1" stop-color="#F68718"/>
</linearGradient>
</defs>
</svg>
