<svg width="23" height="23" viewBox="0 0 23 23" fill="none" xmlns="http://www.w3.org/2000/svg">
<path d="M11.499 1C11.5432 1 11.6088 1.01012 11.708 1.06934C11.7351 1.08549 11.773 1.11448 11.8125 1.21387L11.8145 1.2168L14.333 7.47559L14.5605 8.04297L15.1689 8.09863L21.6416 8.69238C21.785 8.71559 21.8334 8.74949 21.8389 8.75391C21.8812 8.79272 21.9307 8.85676 21.9727 8.97754C22.0025 9.06348 22.0079 9.14475 21.9883 9.24023C21.9793 9.28391 21.9558 9.34377 21.8652 9.42871L16.9404 13.8857L16.5088 14.2754L16.6348 14.8438L18.1123 21.4893C18.1398 21.6152 18.1207 21.666 18.1113 21.6865C18.0607 21.798 17.9971 21.8756 17.9219 21.9365C17.8809 21.9697 17.8356 21.9918 17.7559 21.999C17.7384 22.0006 17.7068 22.004 17.6309 21.9531L17.6191 21.9463L17.6074 21.9385L12.0332 18.4229L11.499 18.0859L10.9658 18.4229L5.3916 21.9385L5.37012 21.9521C5.29341 22.0032 5.25929 22.0008 5.23926 21.999C5.16235 21.9923 5.1191 21.971 5.0791 21.9385C5.00168 21.8754 4.93738 21.7958 4.88672 21.6846C4.87827 21.666 4.85858 21.6156 4.88672 21.4873L4.88574 21.4863L6.36426 14.8438L6.49023 14.2754L6.05859 13.8857L1.13379 9.43066C1.0442 9.34531 1.02096 9.28324 1.01172 9.23828C0.991863 9.14147 0.998129 9.06025 1.02734 8.97559C1.06788 8.85825 1.11625 8.79424 1.16016 8.75391C1.16031 8.75376 1.16274 8.75137 1.16797 8.74805C1.17333 8.74466 1.18317 8.73986 1.19824 8.7334C1.22727 8.72096 1.27637 8.70471 1.35254 8.69238L7.83008 8.09863L8.4375 8.04297L8.66602 7.47559L11.1846 1.2168L11.1865 1.21387C11.2261 1.11449 11.264 1.08549 11.291 1.06934C11.3898 1.01036 11.4549 1.00006 11.499 1Z" stroke="#F99D13" stroke-width="2"/>
</svg>
