<svg width="60" height="59" viewBox="-2 -2 62 62" fill="none" xmlns="http://www.w3.org/2000/svg">
<path d="M29.097 47.0131L14.9918 55.5921C14.3687 55.9925 13.7173 56.1641 13.0375 56.1069C12.3577 56.0497 11.7629 55.8209 11.2531 55.4205C10.7433 55.0202 10.3467 54.5203 10.0635 53.9209C9.78028 53.3215 9.72363 52.6489 9.89357 51.9031L13.6323 35.6888L1.14158 24.7934C0.575113 24.2787 0.221635 23.6919 0.0811497 23.033C-0.0593352 22.3741 -0.0174165 21.7313 0.206906 21.1044C0.431229 20.4776 0.771112 19.9628 1.22655 19.5602C1.682 19.1575 2.30512 18.9002 3.09591 18.7881L19.5802 17.3296L25.953 2.05897C26.2363 1.37265 26.6759 0.857903 27.2718 0.514741C27.8677 0.17158 28.4761 0 29.097 0C29.7178 0 30.3262 0.17158 30.9221 0.514741C31.5181 0.857903 31.9576 1.37265 32.2409 2.05897L38.6137 17.3296L55.098 18.7881C55.8911 18.9025 56.5142 19.1598 56.9674 19.5602C57.4205 19.9605 57.7604 20.4753 57.987 21.1044C58.2136 21.7335 58.2566 22.3775 58.1162 23.0364C57.9757 23.6953 57.6211 24.2809 57.0523 24.7934L44.5616 35.6888L48.3003 51.9031C48.4703 52.6467 48.4136 53.3193 48.1304 53.9209C47.8472 54.5226 47.4506 55.0225 46.9408 55.4205C46.431 55.8186 45.8362 56.0474 45.1564 56.1069C44.4767 56.1663 43.8252 55.9948 43.2021 55.5921L29.097 47.0131Z" fill="white"/>
</svg>
